<svg width="937" height="234" viewBox="0 0 937 234" fill="none" xmlns="http://www.w3.org/2000/svg">
<rect x="155" width="230" height="230" rx="20" fill="white"/>
<path d="M172.068 79.1818H190.273L209.5 126.091H210.318L229.545 79.1818H247.75V149H233.432V103.557H232.852L214.784 148.659H205.034L186.966 103.386H186.386V149H172.068V79.1818ZM298.527 101.75C298.05 100.091 297.38 98.625 296.516 97.3523C295.652 96.0568 294.596 94.9659 293.346 94.0795C292.118 93.1705 290.709 92.4773 289.118 92C287.55 91.5227 285.811 91.2841 283.902 91.2841C280.334 91.2841 277.198 92.1705 274.493 93.9432C271.811 95.7159 269.721 98.2955 268.221 101.682C266.721 105.045 265.971 109.159 265.971 114.023C265.971 118.886 266.709 123.023 268.186 126.432C269.664 129.841 271.755 132.443 274.459 134.239C277.164 136.011 280.357 136.898 284.039 136.898C287.38 136.898 290.232 136.307 292.596 135.125C294.982 133.92 296.8 132.227 298.05 130.045C299.323 127.864 299.959 125.284 299.959 122.307L302.959 122.75H284.959V111.636H314.175V120.432C314.175 126.568 312.88 131.841 310.289 136.25C307.698 140.636 304.13 144.023 299.584 146.409C295.039 148.773 289.834 149.955 283.971 149.955C277.425 149.955 271.675 148.511 266.721 145.625C261.766 142.716 257.902 138.591 255.13 133.25C252.38 127.886 251.005 121.523 251.005 114.159C251.005 108.5 251.823 103.455 253.459 99.0227C255.118 94.5682 257.436 90.7955 260.414 87.7045C263.391 84.6136 266.857 82.2614 270.811 80.6477C274.766 79.0341 279.05 78.2273 283.664 78.2273C287.618 78.2273 291.3 78.8068 294.709 79.9659C298.118 81.1023 301.141 82.7159 303.777 84.8068C306.436 86.8977 308.607 89.3864 310.289 92.2727C311.971 95.1364 313.05 98.2955 313.527 101.75H298.527ZM355.458 99.2614C355.185 96.5114 354.015 94.375 351.947 92.8523C349.879 91.3295 347.072 90.5682 343.526 90.5682C341.117 90.5682 339.083 90.9091 337.424 91.5909C335.765 92.25 334.492 93.1705 333.606 94.3523C332.742 95.5341 332.31 96.875 332.31 98.375C332.265 99.625 332.526 100.716 333.095 101.648C333.685 102.58 334.492 103.386 335.515 104.068C336.538 104.727 337.72 105.307 339.06 105.807C340.401 106.284 341.833 106.693 343.356 107.034L349.629 108.534C352.674 109.216 355.47 110.125 358.015 111.261C360.56 112.398 362.765 113.795 364.629 115.455C366.492 117.114 367.935 119.068 368.958 121.318C370.004 123.568 370.538 126.148 370.56 129.057C370.538 133.33 369.447 137.034 367.288 140.17C365.151 143.284 362.06 145.705 358.015 147.432C353.992 149.136 349.14 149.989 343.458 149.989C337.822 149.989 332.913 149.125 328.731 147.398C324.572 145.67 321.322 143.114 318.981 139.727C316.663 136.318 315.447 132.102 315.333 127.08H329.617C329.776 129.42 330.447 131.375 331.629 132.943C332.833 134.489 334.435 135.659 336.435 136.455C338.458 137.227 340.742 137.614 343.288 137.614C345.788 137.614 347.958 137.25 349.799 136.523C351.663 135.795 353.106 134.784 354.129 133.489C355.151 132.193 355.663 130.705 355.663 129.023C355.663 127.455 355.197 126.136 354.265 125.068C353.356 124 352.015 123.091 350.242 122.341C348.492 121.591 346.345 120.909 343.799 120.295L336.197 118.386C330.31 116.955 325.663 114.716 322.254 111.67C318.845 108.625 317.151 104.523 317.174 99.3636C317.151 95.1364 318.276 91.4432 320.549 88.2841C322.845 85.125 325.992 82.6591 329.992 80.8864C333.992 79.1136 338.538 78.2273 343.629 78.2273C348.81 78.2273 353.333 79.1136 357.197 80.8864C361.083 82.6591 364.106 85.125 366.265 88.2841C368.424 91.4432 369.538 95.1023 369.606 99.2614H355.458Z" fill="#2445A6"/>
<g filter="url(#filter0_d_103_26)">
<path d="M409.942 37.6364H427.767L446.594 83.5682H447.395L466.222 37.6364H484.047V106H470.027V61.5035H469.46L451.768 105.666H442.221L424.529 61.3366H423.962V106H409.942V37.6364ZM502.789 106.968C499.518 106.968 496.603 106.401 494.043 105.266C491.484 104.108 489.459 102.406 487.968 100.158C486.499 97.8885 485.765 95.0623 485.765 91.6797C485.765 88.8312 486.288 86.4389 487.334 84.5028C488.38 82.5668 489.804 81.009 491.607 79.8295C493.409 78.6501 495.457 77.7599 497.749 77.1591C500.063 76.5582 502.489 76.1354 505.026 75.8906C508.008 75.5791 510.411 75.2898 512.236 75.0227C514.061 74.7334 515.385 74.3106 516.208 73.7543C517.032 73.1979 517.443 72.3745 517.443 71.2841V71.0838C517.443 68.9697 516.776 67.334 515.44 66.1768C514.127 65.0196 512.258 64.441 509.832 64.441C507.273 64.441 505.237 65.0085 503.724 66.1435C502.211 67.2562 501.209 68.6581 500.72 70.3494L487.568 69.2812C488.235 66.1657 489.548 63.473 491.506 61.2031C493.465 58.911 495.991 57.1529 499.084 55.929C502.199 54.6828 505.805 54.0597 509.899 54.0597C512.748 54.0597 515.474 54.3935 518.077 55.0611C520.703 55.7287 523.029 56.7635 525.054 58.1655C527.101 59.5675 528.715 61.37 529.894 63.5732C531.074 65.754 531.663 68.3688 531.663 71.4176V106H518.178V98.8899H517.777C516.954 100.492 515.852 101.905 514.472 103.129C513.093 104.331 511.435 105.277 509.499 105.967C507.563 106.634 505.326 106.968 502.789 106.968ZM506.862 97.1541C508.953 97.1541 510.8 96.7424 512.403 95.919C514.005 95.0734 515.262 93.9384 516.175 92.5142C517.087 91.09 517.543 89.4766 517.543 87.674V82.233C517.098 82.5223 516.486 82.7893 515.707 83.0341C514.951 83.2566 514.094 83.468 513.137 83.6683C512.18 83.8464 511.223 84.0133 510.266 84.169C509.309 84.3026 508.442 84.425 507.663 84.5362C505.994 84.781 504.536 85.1705 503.29 85.7045C502.044 86.2386 501.076 86.9619 500.386 87.8743C499.696 88.7644 499.351 89.8771 499.351 91.2124C499.351 93.1484 500.052 94.6283 501.454 95.652C502.878 96.6534 504.681 97.1541 506.862 97.1541ZM562.448 54.7273V65.4091H531.571V54.7273H562.448ZM538.581 42.4432H552.801V90.2443C552.801 91.5573 553.001 92.581 553.402 93.3153C553.802 94.0275 554.358 94.5282 555.071 94.8175C555.805 95.1068 556.651 95.2514 557.608 95.2514C558.275 95.2514 558.943 95.1958 559.61 95.0845C560.278 94.951 560.79 94.8509 561.146 94.7841L563.382 105.366C562.67 105.588 561.669 105.844 560.378 106.134C559.087 106.445 557.519 106.634 555.671 106.701C552.244 106.835 549.24 106.378 546.659 105.332C544.1 104.286 542.108 102.662 540.684 100.459C539.259 98.2557 538.558 95.474 538.581 92.1136V42.4432ZM591.463 54.7273V65.4091H560.586V54.7273H591.463ZM567.596 42.4432H581.816V90.2443C581.816 91.5573 582.016 92.581 582.417 93.3153C582.817 94.0275 583.374 94.5282 584.086 94.8175C584.82 95.1068 585.666 95.2514 586.623 95.2514C587.29 95.2514 587.958 95.1958 588.626 95.0845C589.293 94.951 589.805 94.8509 590.161 94.7841L592.398 105.366C591.685 105.588 590.684 105.844 589.393 106.134C588.103 106.445 586.534 106.634 584.687 106.701C581.26 106.835 578.255 106.378 575.674 105.332C573.115 104.286 571.123 102.662 569.699 100.459C568.274 98.2557 567.573 95.474 567.596 92.1136V42.4432ZM608.528 76.358V106H594.308V37.6364H608.127V63.7734H608.728C609.885 60.7469 611.755 58.3769 614.336 56.6633C616.917 54.9276 620.155 54.0597 624.05 54.0597C627.61 54.0597 630.715 54.8385 633.363 56.3963C636.033 57.9318 638.103 60.1461 639.572 63.0391C641.063 65.9098 641.797 69.348 641.775 73.3537V106H627.555V75.8906C627.577 72.7306 626.776 70.2715 625.151 68.5135C623.549 66.7554 621.301 65.8764 618.408 65.8764C616.472 65.8764 614.759 66.2881 613.268 67.1115C611.799 67.9349 610.642 69.1366 609.796 70.7166C608.973 72.2744 608.55 74.1548 608.528 76.358ZM668.812 107.001C663.538 107.001 658.998 105.933 655.193 103.797C651.41 101.638 648.495 98.5895 646.447 94.6506C644.4 90.6894 643.376 86.005 643.376 80.5973C643.376 75.3232 644.4 70.6944 646.447 66.7109C648.495 62.7275 651.376 59.6231 655.093 57.3977C658.831 55.1723 663.215 54.0597 668.245 54.0597C671.627 54.0597 674.776 54.6049 677.692 55.6953C680.629 56.7635 683.188 58.3769 685.369 60.5355C687.572 62.6941 689.286 65.4091 690.51 68.6804C691.734 71.9294 692.346 75.7348 692.346 80.0966V84.0021H649.051V75.1896H678.96C678.96 73.1423 678.515 71.3286 677.625 69.7486C676.735 68.1686 675.5 66.9335 673.92 66.0433C672.362 65.1309 670.548 64.6747 668.478 64.6747C666.32 64.6747 664.406 65.1754 662.737 66.1768C661.09 67.156 659.799 68.4801 658.865 70.1491C657.93 71.7959 657.452 73.6319 657.429 75.657V84.0355C657.429 86.5724 657.897 88.7644 658.831 90.6115C659.788 92.4586 661.135 93.8828 662.871 94.8842C664.606 95.8857 666.665 96.3864 669.046 96.3864C670.626 96.3864 672.072 96.1638 673.385 95.7188C674.698 95.2737 675.822 94.6061 676.757 93.7159C677.692 92.8258 678.404 91.7353 678.893 90.4446L692.045 91.3125C691.378 94.4725 690.009 97.232 687.939 99.5909C685.892 101.928 683.244 103.752 679.995 105.065C676.768 106.356 673.041 107.001 668.812 107.001ZM703.853 106L689.9 54.7273H704.287L712.231 89.1761H712.699L720.977 54.7273H735.097L743.509 88.9759H743.943L751.754 54.7273H766.108L752.188 106H737.133L728.321 73.7543H727.686L718.874 106H703.853ZM840.243 59.7344C839.776 58.1098 839.119 56.6745 838.274 55.4283C837.428 54.1598 836.393 53.0916 835.169 52.2237C833.968 51.3336 832.588 50.6548 831.03 50.1875C829.495 49.7202 827.792 49.4865 825.923 49.4865C822.429 49.4865 819.358 50.3544 816.71 52.0902C814.084 53.826 812.036 56.3518 810.568 59.6676C809.099 62.9612 808.365 66.9891 808.365 71.7514C808.365 76.5137 809.088 80.5639 810.534 83.902C811.981 87.2401 814.028 89.7881 816.676 91.5462C819.325 93.282 822.451 94.1499 826.056 94.1499C829.328 94.1499 832.12 93.5713 834.435 92.4141C836.772 91.2346 838.552 89.5767 839.776 87.4403C841.022 85.304 841.645 82.7782 841.645 79.8629L844.583 80.2969H826.958V69.4148H855.565V78.027C855.565 84.0355 854.296 89.1984 851.759 93.5156C849.223 97.8106 845.729 101.126 841.278 103.463C836.827 105.777 831.731 106.935 825.99 106.935C819.58 106.935 813.95 105.522 809.099 102.695C804.248 99.8468 800.464 95.8078 797.75 90.5781C795.057 85.3262 793.71 79.0952 793.71 71.8849C793.71 66.3437 794.512 61.4034 796.114 57.0639C797.738 52.7022 800.008 49.008 802.924 45.9815C805.839 42.955 809.232 40.6517 813.105 39.0717C816.977 37.4917 821.172 36.7017 825.689 36.7017C829.561 36.7017 833.166 37.2692 836.504 38.4041C839.843 39.5168 842.802 41.0968 845.384 43.1442C847.987 45.1915 850.113 47.6283 851.759 50.4545C853.406 53.2585 854.463 56.3518 854.931 59.7344H840.243ZM866.947 106.868C864.744 106.868 862.852 106.089 861.272 104.531C859.714 102.951 858.935 101.06 858.935 98.8565C858.935 96.6757 859.714 94.8063 861.272 93.2486C862.852 91.6908 864.744 90.9119 866.947 90.9119C869.083 90.9119 870.952 91.6908 872.555 93.2486C874.157 94.8063 874.958 96.6757 874.958 98.8565C874.958 100.325 874.58 101.672 873.823 102.896C873.089 104.097 872.121 105.065 870.919 105.8C869.717 106.512 868.393 106.868 866.947 106.868Z" fill="white"/>
<path d="M447.028 157.298C446.761 154.605 445.615 152.513 443.589 151.022C441.564 149.531 438.816 148.786 435.344 148.786C432.986 148.786 430.994 149.119 429.369 149.787C427.745 150.432 426.499 151.334 425.631 152.491C424.785 153.648 424.362 154.961 424.362 156.43C424.318 157.654 424.574 158.722 425.13 159.634C425.709 160.547 426.499 161.337 427.5 162.004C428.501 162.65 429.659 163.217 430.972 163.707C432.285 164.174 433.687 164.575 435.178 164.908L441.32 166.377C444.302 167.045 447.039 167.935 449.531 169.048C452.024 170.16 454.182 171.529 456.007 173.153C457.832 174.778 459.245 176.692 460.246 178.895C461.27 181.098 461.793 183.624 461.815 186.472C461.793 190.656 460.725 194.283 458.611 197.354C456.519 200.403 453.492 202.773 449.531 204.464C445.592 206.134 440.841 206.968 435.278 206.968C429.759 206.968 424.952 206.122 420.857 204.431C416.785 202.74 413.603 200.236 411.31 196.92C409.04 193.582 407.85 189.454 407.739 184.536H421.725C421.881 186.828 422.537 188.742 423.695 190.278C424.874 191.791 426.443 192.937 428.401 193.716C430.382 194.473 432.618 194.851 435.111 194.851C437.559 194.851 439.684 194.495 441.487 193.783C443.311 193.071 444.724 192.08 445.726 190.812C446.727 189.543 447.228 188.086 447.228 186.439C447.228 184.903 446.772 183.613 445.859 182.567C444.969 181.521 443.656 180.631 441.92 179.896C440.207 179.162 438.104 178.494 435.612 177.893L428.168 176.024C422.404 174.622 417.853 172.43 414.515 169.448C411.177 166.466 409.519 162.449 409.541 157.398C409.519 153.259 410.621 149.642 412.846 146.549C415.094 143.456 418.176 141.041 422.092 139.305C426.009 137.57 430.46 136.702 435.445 136.702C440.518 136.702 444.947 137.57 448.73 139.305C452.536 141.041 455.495 143.456 457.609 146.549C459.723 149.642 460.814 153.225 460.881 157.298H447.028ZM477.971 176.358V206H463.75V154.727H477.303V163.773H477.904C479.039 160.791 480.941 158.433 483.612 156.697C486.282 154.939 489.52 154.06 493.326 154.06C496.886 154.06 499.991 154.839 502.639 156.396C505.287 157.954 507.346 160.179 508.814 163.072C510.283 165.943 511.017 169.37 511.017 173.354V206H496.797V175.891C496.82 172.753 496.018 170.305 494.394 168.547C492.769 166.767 490.533 165.876 487.684 165.876C485.771 165.876 484.079 166.288 482.611 167.112C481.164 167.935 480.029 169.137 479.206 170.717C478.405 172.274 477.993 174.155 477.971 176.358ZM521.648 225.227C519.846 225.227 518.154 225.083 516.574 224.793C515.017 224.526 513.726 224.181 512.702 223.759L515.907 213.143C517.576 213.655 519.078 213.933 520.413 213.978C521.771 214.022 522.939 213.711 523.918 213.043C524.92 212.376 525.732 211.241 526.355 209.638L527.189 207.469L508.797 154.727H523.751L534.366 192.381H534.9L545.616 154.727H560.67L540.742 211.541C539.785 214.301 538.483 216.704 536.836 218.751C535.212 220.821 533.153 222.412 530.661 223.525C528.169 224.66 525.164 225.227 521.648 225.227ZM577.668 206.835C573.774 206.835 570.247 205.833 567.087 203.83C563.949 201.805 561.456 198.834 559.609 194.918C557.785 190.979 556.872 186.15 556.872 180.43C556.872 174.555 557.818 169.671 559.71 165.776C561.601 161.86 564.116 158.933 567.254 156.997C570.414 155.039 573.874 154.06 577.635 154.06C580.506 154.06 582.898 154.549 584.812 155.528C586.748 156.485 588.306 157.687 589.485 159.134C590.687 160.558 591.599 161.96 592.222 163.339H592.656V137.636H606.843V206H592.823V197.788H592.222C591.555 199.213 590.609 200.626 589.385 202.028C588.183 203.407 586.614 204.554 584.678 205.466C582.764 206.378 580.428 206.835 577.668 206.835ZM582.175 195.518C584.467 195.518 586.403 194.895 587.983 193.649C589.585 192.381 590.809 190.612 591.655 188.342C592.523 186.072 592.957 183.412 592.957 180.364C592.957 177.315 592.534 174.667 591.688 172.419C590.843 170.171 589.619 168.436 588.016 167.212C586.414 165.988 584.467 165.376 582.175 165.376C579.838 165.376 577.869 166.01 576.266 167.278C574.664 168.547 573.451 170.305 572.628 172.553C571.804 174.8 571.393 177.404 571.393 180.364C571.393 183.346 571.804 185.983 572.628 188.275C573.474 190.545 574.686 192.325 576.266 193.616C577.869 194.884 579.838 195.518 582.175 195.518ZM634.381 207.001C629.107 207.001 624.567 205.933 620.762 203.797C616.979 201.638 614.063 198.589 612.016 194.651C609.969 190.689 608.945 186.005 608.945 180.597C608.945 175.323 609.969 170.694 612.016 166.711C614.063 162.728 616.945 159.623 620.662 157.398C624.4 155.172 628.784 154.06 633.814 154.06C637.196 154.06 640.345 154.605 643.26 155.695C646.198 156.763 648.757 158.377 650.938 160.536C653.141 162.694 654.855 165.409 656.079 168.68C657.303 171.929 657.914 175.735 657.914 180.097V184.002H614.62V175.19H644.529C644.529 173.142 644.084 171.329 643.194 169.749C642.303 168.169 641.068 166.933 639.488 166.043C637.931 165.131 636.117 164.675 634.047 164.675C631.889 164.675 629.975 165.175 628.306 166.177C626.659 167.156 625.368 168.48 624.434 170.149C623.499 171.796 623.021 173.632 622.998 175.657V184.036C622.998 186.572 623.466 188.764 624.4 190.612C625.357 192.459 626.704 193.883 628.439 194.884C630.175 195.886 632.234 196.386 634.615 196.386C636.195 196.386 637.641 196.164 638.954 195.719C640.267 195.274 641.391 194.606 642.326 193.716C643.26 192.826 643.972 191.735 644.462 190.445L657.614 191.312C656.946 194.473 655.578 197.232 653.508 199.591C651.461 201.928 648.813 203.752 645.564 205.065C642.337 206.356 638.609 207.001 634.381 207.001ZM659.674 206V154.727H673.461V163.673H673.995C674.929 160.491 676.498 158.088 678.701 156.463C680.904 154.816 683.441 153.993 686.312 153.993C687.024 153.993 687.792 154.037 688.615 154.126C689.439 154.215 690.162 154.338 690.785 154.494V167.112C690.118 166.911 689.194 166.733 688.015 166.577C686.835 166.422 685.756 166.344 684.777 166.344C682.685 166.344 680.815 166.8 679.169 167.712C677.544 168.603 676.253 169.849 675.296 171.451C674.362 173.053 673.894 174.9 673.894 176.992V206H659.674Z" fill="white"/>
</g>
<ellipse cx="97.1223" cy="76.5169" rx="10.8777" ry="9.51685" fill="white"/>
<ellipse cx="10.8777" cy="178.483" rx="10.8777" ry="9.51685" fill="white"/>
<ellipse cx="97.1223" cy="178.483" rx="10.8777" ry="9.51685" fill="white"/>
<defs>
<filter id="filter0_d_103_26" x="400" y="28" width="541" height="205.227" filterUnits="userSpaceOnUse" color-interpolation-filters="sRGB">
<feFlood flood-opacity="0" result="BackgroundImageFix"/>
<feColorMatrix in="SourceAlpha" type="matrix" values="0 0 0 0 0 0 0 0 0 0 0 0 0 0 0 0 0 0 127 0" result="hardAlpha"/>
<feOffset dy="4"/>
<feGaussianBlur stdDeviation="2"/>
<feComposite in2="hardAlpha" operator="out"/>
<feColorMatrix type="matrix" values="0 0 0 0 0 0 0 0 0 0 0 0 0 0 0 0 0 0 0.25 0"/>
<feBlend mode="normal" in2="BackgroundImageFix" result="effect1_dropShadow_103_26"/>
<feBlend mode="normal" in="SourceGraphic" in2="effect1_dropShadow_103_26" result="shape"/>
</filter>
</defs>
</svg>
