<svg width="237" height="185" viewBox="0 0 237 185" fill="none" xmlns="http://www.w3.org/2000/svg">
<path d="M203.176 184.776H33.824C24.9156 184.764 16.3749 180.884 10.0757 173.988C3.77645 167.091 0.232935 157.74 0.222473 147.987V37.0134C0.232935 27.2599 3.77645 17.9091 10.0757 11.0123C16.3749 4.11548 24.9156 0.23582 33.824 0.224365H203.176C212.084 0.23582 220.625 4.11548 226.924 11.0123C233.224 17.9091 236.767 27.2599 236.777 37.0134V147.987C236.767 157.74 233.224 167.091 226.924 173.988C220.625 180.884 212.084 184.764 203.176 184.776ZM33.824 13.2087C28.0577 13.2087 22.5274 15.7167 18.45 20.181C14.3725 24.6452 12.0818 30.7 12.0818 37.0134V147.987C12.0818 154.3 14.3725 160.355 18.45 164.819C22.5274 169.283 28.0577 171.791 33.824 171.791H203.176C208.942 171.791 214.473 169.283 218.55 164.819C222.627 160.355 224.918 154.3 224.918 147.987V37.0134C224.918 30.7 222.627 24.6452 218.55 20.181C214.473 15.7167 208.942 13.2087 203.176 13.2087H33.824Z" fill="white"/>
<path d="M118.5 118.815C111.185 118.828 104.066 116.229 98.2205 111.414L5.915 34.9792C5.26282 34.478 4.70957 33.8381 4.28831 33.0977C3.86704 32.3572 3.58639 31.5314 3.46312 30.6696C3.33985 29.8077 3.37649 28.9275 3.57084 28.0815C3.7652 27.2355 4.11329 26.4411 4.59433 25.7456C5.07536 25.0502 5.67947 24.468 6.37058 24.0339C7.06169 23.5998 7.82562 23.3226 8.61674 23.219C9.40787 23.1153 10.21 23.1873 10.9751 23.4306C11.7403 23.6738 12.4528 24.0835 13.0702 24.635L105.376 101.156C109.166 104.254 113.77 105.928 118.5 105.928C123.23 105.928 127.834 104.254 131.624 101.156L223.93 24.635C224.547 24.0835 225.26 23.6738 226.025 23.4306C226.79 23.1873 227.592 23.1153 228.383 23.219C229.174 23.3226 229.938 23.5998 230.629 24.0339C231.321 24.468 231.925 25.0502 232.406 25.7456C232.887 26.4411 233.235 27.2355 233.429 28.0815C233.624 28.9275 233.66 29.8077 233.537 30.6696C233.414 31.5314 233.133 32.3572 232.712 33.0977C232.29 33.8381 231.737 34.478 231.085 34.9792L138.78 111.414C132.934 116.229 125.815 118.828 118.5 118.815Z" fill="white"/>
<path d="M8.48455 166.684C7.2819 166.686 6.10714 166.288 5.11615 165.541C4.12517 164.795 3.3648 163.737 2.93595 162.507C2.5071 161.277 2.43004 159.933 2.71499 158.654C2.99995 157.374 3.63344 156.22 4.53142 155.344L77.2689 84.3199C78.4432 83.172 79.9858 82.5818 81.5575 82.6792C83.1292 82.7766 84.6011 83.5536 85.6496 84.8392C86.698 86.1249 87.237 87.8139 87.148 89.5346C87.0591 91.2554 86.3494 92.867 85.1752 94.0149L12.4377 165.039C11.3575 166.115 9.94485 166.703 8.48455 166.684ZM228.515 166.684C227.055 166.703 225.643 166.115 224.562 165.039L151.825 94.0149C150.651 92.867 149.941 91.2554 149.852 89.5346C149.763 87.8139 150.302 86.1249 151.35 84.8392C152.399 83.5536 153.871 82.7766 155.443 82.6792C157.014 82.5818 158.557 83.172 159.731 84.3199L232.429 155.344C233.327 156.22 233.961 157.374 234.245 158.654C234.53 159.933 234.453 161.277 234.025 162.507C233.596 163.737 232.835 164.795 231.844 165.541C230.853 166.288 229.679 166.686 228.476 166.684H228.515Z" fill="white"/>
</svg>
