<svg width="230" height="230" viewBox="0 0 230 230" fill="none" xmlns="http://www.w3.org/2000/svg">
<rect width="230" height="230" rx="20" fill="white"/>
<path d="M17.0682 79.1818H35.2727L54.5 126.091H55.3182L74.5455 79.1818H92.75V149H78.4318V103.557H77.8523L59.7841 148.659H50.0341L31.9659 103.386H31.3864V149H17.0682V79.1818ZM143.527 101.75C143.05 100.091 142.38 98.625 141.516 97.3523C140.652 96.0568 139.596 94.9659 138.346 94.0795C137.118 93.1705 135.709 92.4773 134.118 92C132.55 91.5227 130.811 91.2841 128.902 91.2841C125.334 91.2841 122.198 92.1705 119.493 93.9432C116.811 95.7159 114.721 98.2955 113.221 101.682C111.721 105.045 110.971 109.159 110.971 114.023C110.971 118.886 111.709 123.023 113.186 126.432C114.664 129.841 116.755 132.443 119.459 134.239C122.164 136.011 125.357 136.898 129.039 136.898C132.38 136.898 135.232 136.307 137.596 135.125C139.982 133.92 141.8 132.227 143.05 130.045C144.323 127.864 144.959 125.284 144.959 122.307L147.959 122.75H129.959V111.636H159.175V120.432C159.175 126.568 157.88 131.841 155.289 136.25C152.698 140.636 149.13 144.023 144.584 146.409C140.039 148.773 134.834 149.955 128.971 149.955C122.425 149.955 116.675 148.511 111.721 145.625C106.766 142.716 102.902 138.591 100.13 133.25C97.3797 127.886 96.0047 121.523 96.0047 114.159C96.0047 108.5 96.8228 103.455 98.4592 99.0227C100.118 94.5682 102.436 90.7955 105.414 87.7045C108.391 84.6136 111.857 82.2614 115.811 80.6477C119.766 79.0341 124.05 78.2273 128.664 78.2273C132.618 78.2273 136.3 78.8068 139.709 79.9659C143.118 81.1023 146.141 82.7159 148.777 84.8068C151.436 86.8977 153.607 89.3864 155.289 92.2727C156.971 95.1364 158.05 98.2955 158.527 101.75H143.527ZM200.458 99.2614C200.185 96.5114 199.015 94.375 196.947 92.8523C194.879 91.3295 192.072 90.5682 188.526 90.5682C186.117 90.5682 184.083 90.9091 182.424 91.5909C180.765 92.25 179.492 93.1705 178.606 94.3523C177.742 95.5341 177.31 96.875 177.31 98.375C177.265 99.625 177.526 100.716 178.095 101.648C178.685 102.58 179.492 103.386 180.515 104.068C181.538 104.727 182.72 105.307 184.06 105.807C185.401 106.284 186.833 106.693 188.356 107.034L194.629 108.534C197.674 109.216 200.47 110.125 203.015 111.261C205.56 112.398 207.765 113.795 209.629 115.455C211.492 117.114 212.935 119.068 213.958 121.318C215.004 123.568 215.538 126.148 215.56 129.057C215.538 133.33 214.447 137.034 212.288 140.17C210.151 143.284 207.06 145.705 203.015 147.432C198.992 149.136 194.14 149.989 188.458 149.989C182.822 149.989 177.913 149.125 173.731 147.398C169.572 145.67 166.322 143.114 163.981 139.727C161.663 136.318 160.447 132.102 160.333 127.08H174.617C174.776 129.42 175.447 131.375 176.629 132.943C177.833 134.489 179.435 135.659 181.435 136.455C183.458 137.227 185.742 137.614 188.288 137.614C190.788 137.614 192.958 137.25 194.799 136.523C196.663 135.795 198.106 134.784 199.129 133.489C200.151 132.193 200.663 130.705 200.663 129.023C200.663 127.455 200.197 126.136 199.265 125.068C198.356 124 197.015 123.091 195.242 122.341C193.492 121.591 191.345 120.909 188.799 120.295L181.197 118.386C175.31 116.955 170.663 114.716 167.254 111.67C163.845 108.625 162.151 104.523 162.174 99.3636C162.151 95.1364 163.276 91.4432 165.549 88.2841C167.845 85.125 170.992 82.6591 174.992 80.8864C178.992 79.1136 183.538 78.2273 188.629 78.2273C193.81 78.2273 198.333 79.1136 202.197 80.8864C206.083 82.6591 209.106 85.125 211.265 88.2841C213.424 91.4432 214.538 95.1023 214.606 99.2614H200.458Z" fill="#2445A6"/>
</svg>
