<svg width="937" height="230" viewBox="0 0 937 230" fill="none" xmlns="http://www.w3.org/2000/svg">
<rect x="155" width="230" height="230" rx="20" fill="white"/>
<path d="M172.068 79.1818H190.273L209.5 126.091H210.318L229.545 79.1818H247.75V149H233.432V103.557H232.852L214.784 148.659H205.034L186.966 103.386H186.386V149H172.068V79.1818ZM298.527 101.75C298.05 100.091 297.38 98.625 296.516 97.3523C295.652 96.0568 294.596 94.9659 293.346 94.0795C292.118 93.1705 290.709 92.4773 289.118 92C287.55 91.5227 285.811 91.2841 283.902 91.2841C280.334 91.2841 277.198 92.1705 274.493 93.9432C271.811 95.7159 269.721 98.2955 268.221 101.682C266.721 105.045 265.971 109.159 265.971 114.023C265.971 118.886 266.709 123.023 268.186 126.432C269.664 129.841 271.755 132.443 274.459 134.239C277.164 136.011 280.357 136.898 284.039 136.898C287.38 136.898 290.232 136.307 292.596 135.125C294.982 133.92 296.8 132.227 298.05 130.045C299.323 127.864 299.959 125.284 299.959 122.307L302.959 122.75H284.959V111.636H314.175V120.432C314.175 126.568 312.88 131.841 310.289 136.25C307.698 140.636 304.13 144.023 299.584 146.409C295.039 148.773 289.834 149.955 283.971 149.955C277.425 149.955 271.675 148.511 266.721 145.625C261.766 142.716 257.902 138.591 255.13 133.25C252.38 127.886 251.005 121.523 251.005 114.159C251.005 108.5 251.823 103.455 253.459 99.0227C255.118 94.5682 257.436 90.7955 260.414 87.7045C263.391 84.6136 266.857 82.2614 270.811 80.6477C274.766 79.0341 279.05 78.2273 283.664 78.2273C287.618 78.2273 291.3 78.8068 294.709 79.9659C298.118 81.1023 301.141 82.7159 303.777 84.8068C306.436 86.8977 308.607 89.3864 310.289 92.2727C311.971 95.1364 313.05 98.2955 313.527 101.75H298.527ZM355.458 99.2614C355.185 96.5114 354.015 94.375 351.947 92.8523C349.879 91.3295 347.072 90.5682 343.526 90.5682C341.117 90.5682 339.083 90.9091 337.424 91.5909C335.765 92.25 334.492 93.1705 333.606 94.3523C332.742 95.5341 332.31 96.875 332.31 98.375C332.265 99.625 332.526 100.716 333.095 101.648C333.685 102.58 334.492 103.386 335.515 104.068C336.538 104.727 337.72 105.307 339.06 105.807C340.401 106.284 341.833 106.693 343.356 107.034L349.629 108.534C352.674 109.216 355.47 110.125 358.015 111.261C360.56 112.398 362.765 113.795 364.629 115.455C366.492 117.114 367.935 119.068 368.958 121.318C370.004 123.568 370.538 126.148 370.56 129.057C370.538 133.33 369.447 137.034 367.288 140.17C365.151 143.284 362.06 145.705 358.015 147.432C353.992 149.136 349.14 149.989 343.458 149.989C337.822 149.989 332.913 149.125 328.731 147.398C324.572 145.67 321.322 143.114 318.981 139.727C316.663 136.318 315.447 132.102 315.333 127.08H329.617C329.776 129.42 330.447 131.375 331.629 132.943C332.833 134.489 334.435 135.659 336.435 136.455C338.458 137.227 340.742 137.614 343.288 137.614C345.788 137.614 347.958 137.25 349.799 136.523C351.663 135.795 353.106 134.784 354.129 133.489C355.151 132.193 355.663 130.705 355.663 129.023C355.663 127.455 355.197 126.136 354.265 125.068C353.356 124 352.015 123.091 350.242 122.341C348.492 121.591 346.345 120.909 343.799 120.295L336.197 118.386C330.31 116.955 325.663 114.716 322.254 111.67C318.845 108.625 317.151 104.523 317.174 99.3636C317.151 95.1364 318.276 91.4432 320.549 88.2841C322.845 85.125 325.992 82.6591 329.992 80.8864C333.992 79.1136 338.538 78.2273 343.629 78.2273C348.81 78.2273 353.333 79.1136 357.197 80.8864C361.083 82.6591 364.106 85.125 366.265 88.2841C368.424 91.4432 369.538 95.1023 369.606 99.2614H355.458Z" fill="#2445A6"/>
<path d="M408.045 48.4545H420.182L433 79.7273H433.545L446.364 48.4545H458.5V95H448.955V64.7045H448.568L436.523 94.7727H430.023L417.977 64.5909H417.591V95H408.045V48.4545ZM485.981 95.6591C483.753 95.6591 481.769 95.2727 480.026 94.5C478.284 93.7121 476.905 92.553 475.89 91.0227C474.89 89.4773 474.39 87.553 474.39 85.25C474.39 83.3106 474.746 81.6818 475.458 80.3636C476.17 79.0455 477.14 77.9848 478.367 77.1818C479.594 76.3788 480.988 75.7727 482.549 75.3636C484.125 74.9545 485.776 74.6667 487.503 74.5C489.534 74.2879 491.17 74.0909 492.412 73.9091C493.655 73.7121 494.556 73.4242 495.117 73.0455C495.678 72.6667 495.958 72.1061 495.958 71.3636V71.2273C495.958 69.7879 495.503 68.6742 494.594 67.8864C493.7 67.0985 492.428 66.7045 490.776 66.7045C489.034 66.7045 487.647 67.0909 486.617 67.8636C485.587 68.6212 484.905 69.5758 484.572 70.7273L475.617 70C476.072 67.8788 476.966 66.0455 478.299 64.5C479.632 62.9394 481.352 61.7424 483.458 60.9091C485.579 60.0606 488.034 59.6364 490.822 59.6364C492.761 59.6364 494.617 59.8636 496.39 60.3182C498.178 60.7727 499.761 61.4773 501.14 62.4318C502.534 63.3864 503.632 64.6136 504.435 66.1136C505.238 67.5985 505.64 69.3788 505.64 71.4545V95H496.458V90.1591H496.185C495.625 91.25 494.875 92.2121 493.935 93.0455C492.996 93.8636 491.867 94.5076 490.549 94.9773C489.231 95.4318 487.708 95.6591 485.981 95.6591ZM488.753 88.9773C490.178 88.9773 491.435 88.697 492.526 88.1364C493.617 87.5606 494.473 86.7879 495.094 85.8182C495.716 84.8485 496.026 83.75 496.026 82.5227V78.8182C495.723 79.0152 495.306 79.197 494.776 79.3636C494.261 79.5152 493.678 79.6591 493.026 79.7955C492.375 79.9167 491.723 80.0303 491.072 80.1364C490.42 80.2273 489.829 80.3106 489.299 80.3864C488.162 80.553 487.17 80.8182 486.322 81.1818C485.473 81.5455 484.814 82.0379 484.344 82.6591C483.875 83.2652 483.64 84.0227 483.64 84.9318C483.64 86.25 484.117 87.2576 485.072 87.9545C486.041 88.6364 487.269 88.9773 488.753 88.9773ZM541.319 60.0909V67.3636H520.297V60.0909H541.319ZM525.069 51.7273H534.751V84.2727C534.751 85.1667 534.887 85.8636 535.16 86.3636C535.433 86.8485 535.812 87.1894 536.297 87.3864C536.797 87.5833 537.372 87.6818 538.024 87.6818C538.478 87.6818 538.933 87.6439 539.387 87.5682C539.842 87.4773 540.191 87.4091 540.433 87.3636L541.956 94.5682C541.471 94.7197 540.789 94.8939 539.91 95.0909C539.031 95.303 537.963 95.4318 536.706 95.4773C534.372 95.5682 532.327 95.2576 530.569 94.5455C528.827 93.8333 527.471 92.7273 526.501 91.2273C525.531 89.7273 525.054 87.8333 525.069 85.5455V51.7273ZM575.794 60.0909V67.3636H554.772V60.0909H575.794ZM559.544 51.7273H569.226V84.2727C569.226 85.1667 569.363 85.8636 569.635 86.3636C569.908 86.8485 570.287 87.1894 570.772 87.3864C571.272 87.5833 571.847 87.6818 572.499 87.6818C572.953 87.6818 573.408 87.6439 573.863 87.5682C574.317 87.4773 574.666 87.4091 574.908 87.3636L576.431 94.5682C575.946 94.7197 575.264 94.8939 574.385 95.0909C573.506 95.303 572.438 95.4318 571.181 95.4773C568.847 95.5682 566.802 95.2576 565.044 94.5455C563.302 93.8333 561.946 92.7273 560.976 91.2273C560.006 89.7273 559.529 87.8333 559.544 85.5455V51.7273ZM602.133 74.8182V95H592.451V48.4545H601.86V66.25H602.269C603.057 64.1894 604.33 62.5758 606.087 61.4091C607.845 60.2273 610.05 59.6364 612.701 59.6364C615.125 59.6364 617.239 60.1667 619.042 61.2273C620.86 62.2727 622.269 63.7803 623.269 65.75C624.284 67.7045 624.784 70.0455 624.769 72.7727V95H615.087V74.5C615.103 72.3485 614.557 70.6742 613.451 69.4773C612.36 68.2803 610.83 67.6818 608.86 67.6818C607.542 67.6818 606.375 67.9621 605.36 68.5227C604.36 69.0833 603.572 69.9015 602.997 70.9773C602.436 72.0379 602.148 73.3182 602.133 74.8182ZM657.898 95.6818C654.307 95.6818 651.216 94.9545 648.625 93.5C646.049 92.0303 644.064 89.9545 642.67 87.2727C641.277 84.5758 640.58 81.3864 640.58 77.7045C640.58 74.1136 641.277 70.9621 642.67 68.25C644.064 65.5379 646.027 63.4242 648.557 61.9091C651.102 60.3939 654.087 59.6364 657.511 59.6364C659.814 59.6364 661.958 60.0076 663.943 60.75C665.943 61.4773 667.686 62.5758 669.17 64.0455C670.67 65.5152 671.837 67.3636 672.67 69.5909C673.504 71.803 673.92 74.3939 673.92 77.3636V80.0227H644.443V74.0227H664.807C664.807 72.6288 664.504 71.3939 663.898 70.3182C663.292 69.2424 662.451 68.4015 661.375 67.7955C660.314 67.1742 659.08 66.8636 657.67 66.8636C656.201 66.8636 654.898 67.2045 653.761 67.8864C652.64 68.553 651.761 69.4545 651.125 70.5909C650.489 71.7121 650.163 72.9621 650.148 74.3409V80.0455C650.148 81.7727 650.466 83.2652 651.102 84.5227C651.754 85.7803 652.67 86.75 653.852 87.4318C655.034 88.1136 656.436 88.4545 658.057 88.4545C659.133 88.4545 660.117 88.303 661.011 88C661.905 87.697 662.67 87.2424 663.307 86.6364C663.943 86.0303 664.428 85.2879 664.761 84.4091L673.716 85C673.261 87.1515 672.33 89.0303 670.92 90.6364C669.527 92.2273 667.723 93.4697 665.511 94.3636C663.314 95.2424 660.777 95.6818 657.898 95.6818ZM696.475 95L686.975 60.0909H696.77L702.18 83.5455H702.498L708.134 60.0909H717.748L723.475 83.4091H723.77L729.089 60.0909H738.861L729.384 95H719.134L713.134 73.0455H712.702L706.702 95H696.475ZM833.497 63.5C833.178 62.3939 832.731 61.4167 832.156 60.5682C831.58 59.7045 830.875 58.9773 830.042 58.3864C829.224 57.7803 828.284 57.3182 827.224 57C826.178 56.6818 825.019 56.5227 823.747 56.5227C821.368 56.5227 819.277 57.1136 817.474 58.2955C815.686 59.4773 814.292 61.197 813.292 63.4545C812.292 65.697 811.792 68.4394 811.792 71.6818C811.792 74.9242 812.284 77.6818 813.269 79.9545C814.254 82.2273 815.648 83.9621 817.451 85.1591C819.254 86.3409 821.383 86.9318 823.837 86.9318C826.065 86.9318 827.966 86.5379 829.542 85.75C831.133 84.947 832.345 83.8182 833.178 82.3636C834.027 80.9091 834.451 79.1894 834.451 77.2045L836.451 77.5H824.451V70.0909H843.928V75.9545C843.928 80.0455 843.065 83.5606 841.337 86.5C839.61 89.4242 837.231 91.6818 834.201 93.2727C831.171 94.8485 827.701 95.6364 823.792 95.6364C819.428 95.6364 815.595 94.6742 812.292 92.75C808.989 90.8106 806.413 88.0606 804.565 84.5C802.731 80.9242 801.815 76.6818 801.815 71.7727C801.815 68 802.36 64.6364 803.451 61.6818C804.557 58.7121 806.103 56.197 808.087 54.1364C810.072 52.0758 812.383 50.5076 815.019 49.4318C817.656 48.3561 820.512 47.8182 823.587 47.8182C826.224 47.8182 828.678 48.2045 830.951 48.9773C833.224 49.7348 835.239 50.8106 836.997 52.2045C838.769 53.5985 840.216 55.2576 841.337 57.1818C842.459 59.0909 843.178 61.197 843.497 63.5H833.497ZM866.398 95.5909C864.898 95.5909 863.61 95.0606 862.534 94C861.473 92.9242 860.943 91.6364 860.943 90.1364C860.943 88.6515 861.473 87.3788 862.534 86.3182C863.61 85.2576 864.898 84.7273 866.398 84.7273C867.852 84.7273 869.125 85.2576 870.216 86.3182C871.307 87.3788 871.852 88.6515 871.852 90.1364C871.852 91.1364 871.595 92.053 871.08 92.8864C870.58 93.7045 869.92 94.3636 869.102 94.8636C868.284 95.3485 867.383 95.5909 866.398 95.5909Z" fill="white"/>
<path d="M433.295 161.841C433.114 160.008 432.333 158.583 430.955 157.568C429.576 156.553 427.705 156.045 425.341 156.045C423.735 156.045 422.379 156.273 421.273 156.727C420.167 157.167 419.318 157.78 418.727 158.568C418.152 159.356 417.864 160.25 417.864 161.25C417.833 162.083 418.008 162.811 418.386 163.432C418.78 164.053 419.318 164.591 420 165.045C420.682 165.485 421.47 165.871 422.364 166.205C423.258 166.523 424.212 166.795 425.227 167.023L429.409 168.023C431.439 168.477 433.303 169.083 435 169.841C436.697 170.598 438.167 171.53 439.409 172.636C440.652 173.742 441.614 175.045 442.295 176.545C442.992 178.045 443.348 179.765 443.364 181.705C443.348 184.553 442.621 187.023 441.182 189.114C439.758 191.189 437.697 192.803 435 193.955C432.318 195.091 429.083 195.659 425.295 195.659C421.538 195.659 418.265 195.083 415.477 193.932C412.705 192.78 410.538 191.076 408.977 188.818C407.432 186.545 406.621 183.735 406.545 180.386H416.068C416.174 181.947 416.621 183.25 417.409 184.295C418.212 185.326 419.28 186.106 420.614 186.636C421.962 187.152 423.485 187.409 425.182 187.409C426.848 187.409 428.295 187.167 429.523 186.682C430.765 186.197 431.727 185.523 432.409 184.659C433.091 183.795 433.432 182.803 433.432 181.682C433.432 180.636 433.121 179.758 432.5 179.045C431.894 178.333 431 177.727 429.818 177.227C428.652 176.727 427.22 176.273 425.523 175.864L420.455 174.591C416.53 173.636 413.432 172.144 411.159 170.114C408.886 168.083 407.758 165.348 407.773 161.909C407.758 159.091 408.508 156.629 410.023 154.523C411.553 152.417 413.652 150.773 416.318 149.591C418.985 148.409 422.015 147.818 425.409 147.818C428.864 147.818 431.879 148.409 434.455 149.591C437.045 150.773 439.061 152.417 440.5 154.523C441.939 156.629 442.682 159.068 442.727 161.841H433.295ZM469.083 174.818V195H459.401V160.091H468.628V166.25H469.037C469.81 164.22 471.106 162.614 472.924 161.432C474.742 160.235 476.947 159.636 479.537 159.636C481.962 159.636 484.075 160.167 485.878 161.227C487.681 162.288 489.083 163.803 490.083 165.773C491.083 167.727 491.583 170.061 491.583 172.773V195H481.901V174.5C481.916 172.364 481.371 170.697 480.265 169.5C479.159 168.288 477.636 167.682 475.697 167.682C474.394 167.682 473.242 167.962 472.242 168.523C471.257 169.083 470.484 169.902 469.924 170.977C469.378 172.038 469.098 173.318 469.083 174.818ZM513.541 208.091C512.314 208.091 511.162 207.992 510.086 207.795C509.026 207.614 508.147 207.379 507.45 207.091L509.632 199.864C510.768 200.212 511.791 200.402 512.7 200.432C513.624 200.462 514.42 200.25 515.086 199.795C515.768 199.341 516.321 198.568 516.745 197.477L517.314 196L504.791 160.091H514.973L522.2 185.727H522.564L529.859 160.091H540.109L526.541 198.773C525.889 200.652 525.003 202.288 523.882 203.682C522.776 205.091 521.374 206.174 519.677 206.932C517.98 207.705 515.935 208.091 513.541 208.091ZM566.402 195.568C563.751 195.568 561.349 194.886 559.198 193.523C557.061 192.144 555.364 190.121 554.107 187.455C552.864 184.773 552.243 181.485 552.243 177.591C552.243 173.591 552.887 170.265 554.175 167.614C555.463 164.947 557.175 162.955 559.311 161.636C561.463 160.303 563.819 159.636 566.38 159.636C568.334 159.636 569.963 159.97 571.266 160.636C572.584 161.288 573.645 162.106 574.448 163.091C575.266 164.061 575.887 165.015 576.311 165.955H576.607V148.455H586.266V195H576.72V189.409H576.311C575.857 190.379 575.213 191.341 574.38 192.295C573.561 193.235 572.493 194.015 571.175 194.636C569.872 195.258 568.281 195.568 566.402 195.568ZM569.47 187.864C571.031 187.864 572.349 187.439 573.425 186.591C574.516 185.727 575.349 184.523 575.925 182.977C576.516 181.432 576.811 179.621 576.811 177.545C576.811 175.47 576.523 173.667 575.948 172.136C575.372 170.606 574.539 169.424 573.448 168.591C572.357 167.758 571.031 167.341 569.47 167.341C567.88 167.341 566.539 167.773 565.448 168.636C564.357 169.5 563.531 170.697 562.97 172.227C562.41 173.758 562.13 175.53 562.13 177.545C562.13 179.576 562.41 181.371 562.97 182.932C563.546 184.477 564.372 185.689 565.448 186.568C566.539 187.432 567.88 187.864 569.47 187.864ZM619.735 195.682C616.144 195.682 613.053 194.955 610.462 193.5C607.887 192.03 605.902 189.955 604.508 187.273C603.114 184.576 602.417 181.386 602.417 177.705C602.417 174.114 603.114 170.962 604.508 168.25C605.902 165.538 607.864 163.424 610.394 161.909C612.94 160.394 615.925 159.636 619.349 159.636C621.652 159.636 623.796 160.008 625.781 160.75C627.781 161.477 629.523 162.576 631.008 164.045C632.508 165.515 633.675 167.364 634.508 169.591C635.341 171.803 635.758 174.394 635.758 177.364V180.023H606.281V174.023H626.644C626.644 172.629 626.341 171.394 625.735 170.318C625.129 169.242 624.288 168.402 623.212 167.795C622.152 167.174 620.917 166.864 619.508 166.864C618.038 166.864 616.735 167.205 615.599 167.886C614.478 168.553 613.599 169.455 612.962 170.591C612.326 171.712 612 172.962 611.985 174.341V180.045C611.985 181.773 612.303 183.265 612.94 184.523C613.591 185.78 614.508 186.75 615.69 187.432C616.872 188.114 618.273 188.455 619.894 188.455C620.97 188.455 621.955 188.303 622.849 188C623.743 187.697 624.508 187.242 625.144 186.636C625.781 186.03 626.266 185.288 626.599 184.409L635.553 185C635.099 187.152 634.167 189.03 632.758 190.636C631.364 192.227 629.561 193.47 627.349 194.364C625.152 195.242 622.614 195.682 619.735 195.682ZM651.676 195V160.091H661.062V166.182H661.426C662.063 164.015 663.131 162.379 664.631 161.273C666.131 160.152 667.858 159.591 669.812 159.591C670.297 159.591 670.82 159.621 671.381 159.682C671.941 159.742 672.434 159.826 672.858 159.932V168.523C672.403 168.386 671.775 168.265 670.972 168.159C670.169 168.053 669.434 168 668.767 168C667.343 168 666.07 168.311 664.949 168.932C663.843 169.538 662.964 170.386 662.312 171.477C661.676 172.568 661.358 173.826 661.358 175.25V195H651.676Z" fill="white"/>
<ellipse cx="97.1223" cy="76.5169" rx="10.8777" ry="9.51685" fill="white"/>
<ellipse cx="10.8777" cy="178.483" rx="10.8777" ry="9.51685" fill="white"/>
<ellipse cx="97.1223" cy="178.483" rx="10.8777" ry="9.51685" fill="white"/>
</svg>
